<mxfile host="Electron" agent="Mozilla/5.0 (Windows NT 10.0; Win64; x64) AppleWebKit/537.36 (KHTML, like Gecko) draw.io/26.0.16 Chrome/132.0.6834.196 Electron/34.2.0 Safari/537.36" version="26.0.16">
  <diagram name="Page-1" id="Vk0b5H3L1SESiMLQ1a4l">
    <mxGraphModel dx="1304" dy="870" grid="1" gridSize="10" guides="1" tooltips="1" connect="1" arrows="1" fold="1" page="1" pageScale="1" pageWidth="3300" pageHeight="4681" math="0" shadow="0">
      <root>
        <mxCell id="0" />
        <mxCell id="1" parent="0" />
        <mxCell id="z4m7dzDND1Zy9vnOMDJ4-134" value="" style="endArrow=classic;html=1;rounded=0;exitX=0.5;exitY=0;exitDx=0;exitDy=0;" parent="1" source="z4m7dzDND1Zy9vnOMDJ4-133" edge="1">
          <mxGeometry width="50" height="50" relative="1" as="geometry">
            <mxPoint x="904.58" y="1340" as="sourcePoint" />
            <mxPoint x="905" y="920" as="targetPoint" />
          </mxGeometry>
        </mxCell>
        <mxCell id="8MUEx2jzXtJNU1HR3N2--3" value="" style="endArrow=classic;html=1;rounded=0;" parent="1" edge="1">
          <mxGeometry width="50" height="50" relative="1" as="geometry">
            <mxPoint x="200" y="1240" as="sourcePoint" />
            <mxPoint x="1520" y="1240" as="targetPoint" />
          </mxGeometry>
        </mxCell>
        <mxCell id="z4m7dzDND1Zy9vnOMDJ4-5" value="" style="html=1;verticalLabelPosition=bottom;labelBackgroundColor=#ffffff;verticalAlign=top;shadow=0;dashed=0;strokeWidth=1;shape=mxgraph.ios7.misc.iphone;" parent="1" vertex="1">
          <mxGeometry x="140" y="1160" width="40" height="70" as="geometry" />
        </mxCell>
        <mxCell id="z4m7dzDND1Zy9vnOMDJ4-82" value="" style="shape=parallelogram;perimeter=parallelogramPerimeter;whiteSpace=wrap;html=1;fixedSize=1;fillColor=#4299E1;size=20;" parent="1" vertex="1">
          <mxGeometry x="240" y="1180" width="120" height="60" as="geometry" />
        </mxCell>
        <mxCell id="z4m7dzDND1Zy9vnOMDJ4-90" value="" style="endArrow=classic;html=1;rounded=0;exitX=1;exitY=0.5;exitDx=0;exitDy=0;" parent="1" edge="1">
          <mxGeometry width="50" height="50" relative="1" as="geometry">
            <mxPoint x="350" y="1209.8400000000001" as="sourcePoint" />
            <mxPoint x="440" y="1209.8400000000001" as="targetPoint" />
          </mxGeometry>
        </mxCell>
        <mxCell id="z4m7dzDND1Zy9vnOMDJ4-93" value="" style="endArrow=none;dashed=1;html=1;rounded=0;strokeWidth=1;" parent="1" edge="1">
          <mxGeometry width="50" height="50" relative="1" as="geometry">
            <mxPoint x="440" y="1600" as="sourcePoint" />
            <mxPoint x="440" y="840" as="targetPoint" />
          </mxGeometry>
        </mxCell>
        <mxCell id="z4m7dzDND1Zy9vnOMDJ4-96" value="" style="shape=parallelogram;perimeter=parallelogramPerimeter;whiteSpace=wrap;html=1;fixedSize=1;fillColor=#4299E1;size=20;" parent="1" vertex="1">
          <mxGeometry x="440" y="1180" width="40" height="60" as="geometry" />
        </mxCell>
        <mxCell id="z4m7dzDND1Zy9vnOMDJ4-97" value="" style="shape=parallelogram;perimeter=parallelogramPerimeter;whiteSpace=wrap;html=1;fixedSize=1;fillColor=#4299E1;size=20;" parent="1" vertex="1">
          <mxGeometry x="460" y="1180" width="40" height="60" as="geometry" />
        </mxCell>
        <mxCell id="z4m7dzDND1Zy9vnOMDJ4-98" value="" style="shape=parallelogram;perimeter=parallelogramPerimeter;whiteSpace=wrap;html=1;fixedSize=1;fillColor=default;size=20;" parent="1" vertex="1">
          <mxGeometry x="480" y="1180" width="40" height="60" as="geometry" />
        </mxCell>
        <mxCell id="z4m7dzDND1Zy9vnOMDJ4-99" value="" style="shape=parallelogram;perimeter=parallelogramPerimeter;whiteSpace=wrap;html=1;fixedSize=1;fillColor=default;size=20;" parent="1" vertex="1">
          <mxGeometry x="500" y="1180" width="40" height="60" as="geometry" />
        </mxCell>
        <mxCell id="z4m7dzDND1Zy9vnOMDJ4-100" value="" style="shape=parallelogram;perimeter=parallelogramPerimeter;whiteSpace=wrap;html=1;fixedSize=1;fillColor=default;size=20;" parent="1" vertex="1">
          <mxGeometry x="520" y="1180" width="40" height="60" as="geometry" />
        </mxCell>
        <mxCell id="z4m7dzDND1Zy9vnOMDJ4-101" value="" style="shape=parallelogram;perimeter=parallelogramPerimeter;whiteSpace=wrap;html=1;fixedSize=1;fillColor=default;size=20;" parent="1" vertex="1">
          <mxGeometry x="540" y="1180" width="40" height="60" as="geometry" />
        </mxCell>
        <mxCell id="z4m7dzDND1Zy9vnOMDJ4-117" value="" style="endArrow=none;dashed=1;html=1;rounded=0;strokeWidth=1;" parent="1" edge="1">
          <mxGeometry width="50" height="50" relative="1" as="geometry">
            <mxPoint x="780" y="1600" as="sourcePoint" />
            <mxPoint x="780" y="840" as="targetPoint" />
          </mxGeometry>
        </mxCell>
        <mxCell id="z4m7dzDND1Zy9vnOMDJ4-123" value="" style="shape=parallelogram;perimeter=parallelogramPerimeter;whiteSpace=wrap;html=1;fixedSize=1;fillColor=#4299E1;size=20;" parent="1" vertex="1">
          <mxGeometry x="780" y="1180" width="40" height="60" as="geometry" />
        </mxCell>
        <mxCell id="z4m7dzDND1Zy9vnOMDJ4-124" value="" style="shape=parallelogram;perimeter=parallelogramPerimeter;whiteSpace=wrap;html=1;fixedSize=1;fillColor=#4299E1;size=20;" parent="1" vertex="1">
          <mxGeometry x="800" y="1180" width="40" height="60" as="geometry" />
        </mxCell>
        <mxCell id="z4m7dzDND1Zy9vnOMDJ4-125" value="" style="shape=parallelogram;perimeter=parallelogramPerimeter;whiteSpace=wrap;html=1;fixedSize=1;fillColor=#4299E1;size=20;" parent="1" vertex="1">
          <mxGeometry x="820" y="1180" width="40" height="60" as="geometry" />
        </mxCell>
        <mxCell id="z4m7dzDND1Zy9vnOMDJ4-126" value="" style="shape=parallelogram;perimeter=parallelogramPerimeter;whiteSpace=wrap;html=1;fixedSize=1;fillColor=default;size=20;" parent="1" vertex="1">
          <mxGeometry x="840" y="1180" width="40" height="60" as="geometry" />
        </mxCell>
        <mxCell id="z4m7dzDND1Zy9vnOMDJ4-140" value="" style="endArrow=classic;html=1;rounded=0;exitX=0.5;exitY=1;exitDx=0;exitDy=0;entryX=0.5;entryY=0;entryDx=0;entryDy=0;" parent="1" target="z4m7dzDND1Zy9vnOMDJ4-141" edge="1">
          <mxGeometry width="50" height="50" relative="1" as="geometry">
            <mxPoint x="1029.58" y="920" as="sourcePoint" />
            <mxPoint x="1029.58" y="1020" as="targetPoint" />
          </mxGeometry>
        </mxCell>
        <mxCell id="z4m7dzDND1Zy9vnOMDJ4-142" value="" style="endArrow=none;dashed=1;html=1;rounded=0;strokeWidth=1;" parent="1" edge="1">
          <mxGeometry width="50" height="50" relative="1" as="geometry">
            <mxPoint x="1140" y="1600" as="sourcePoint" />
            <mxPoint x="1140" y="840" as="targetPoint" />
          </mxGeometry>
        </mxCell>
        <mxCell id="z4m7dzDND1Zy9vnOMDJ4-157" value="" style="shape=parallelogram;perimeter=parallelogramPerimeter;whiteSpace=wrap;html=1;fixedSize=1;fillColor=#4299E1;size=20;" parent="1" vertex="1">
          <mxGeometry x="1140" y="1180" width="40" height="60" as="geometry" />
        </mxCell>
        <mxCell id="z4m7dzDND1Zy9vnOMDJ4-165" value="" style="rounded=0;whiteSpace=wrap;html=1;fillColor=none;" parent="1" vertex="1">
          <mxGeometry x="1180" y="1180" width="90" height="60" as="geometry" />
        </mxCell>
        <mxCell id="z4m7dzDND1Zy9vnOMDJ4-167" value="" style="endArrow=classic;html=1;rounded=0;" parent="1" edge="1">
          <mxGeometry width="50" height="50" relative="1" as="geometry">
            <mxPoint x="1225" y="1180" as="sourcePoint" />
            <mxPoint x="1225" y="920" as="targetPoint" />
          </mxGeometry>
        </mxCell>
        <mxCell id="z4m7dzDND1Zy9vnOMDJ4-170" value="" style="endArrow=classic;html=1;rounded=0;exitX=0.5;exitY=1;exitDx=0;exitDy=0;entryX=0.5;entryY=0;entryDx=0;entryDy=0;" parent="1" target="z4m7dzDND1Zy9vnOMDJ4-171" edge="1">
          <mxGeometry width="50" height="50" relative="1" as="geometry">
            <mxPoint x="1349.6599999999999" y="920" as="sourcePoint" />
            <mxPoint x="1350" y="1160" as="targetPoint" />
          </mxGeometry>
        </mxCell>
        <mxCell id="z4m7dzDND1Zy9vnOMDJ4-171" value="" style="rounded=0;whiteSpace=wrap;html=1;fillColor=none;dashed=1;" parent="1" vertex="1">
          <mxGeometry x="1330" y="1180" width="40" height="60" as="geometry" />
        </mxCell>
        <mxCell id="CVVJZ549YovdGznMH3PS-3" value="" style="endArrow=classic;startArrow=classic;html=1;rounded=0;" parent="1" edge="1">
          <mxGeometry width="50" height="50" relative="1" as="geometry">
            <mxPoint x="440" y="1260" as="sourcePoint" />
            <mxPoint x="580" y="1260" as="targetPoint" />
          </mxGeometry>
        </mxCell>
        <mxCell id="CVVJZ549YovdGznMH3PS-4" value="" style="endArrow=classic;startArrow=classic;html=1;rounded=0;" parent="1" edge="1">
          <mxGeometry width="50" height="50" relative="1" as="geometry">
            <mxPoint x="440" y="1160" as="sourcePoint" />
            <mxPoint x="580" y="1160" as="targetPoint" />
          </mxGeometry>
        </mxCell>
        <mxCell id="CVVJZ549YovdGznMH3PS-8" value="" style="endArrow=classic;startArrow=classic;html=1;rounded=0;" parent="1" edge="1">
          <mxGeometry width="50" height="50" relative="1" as="geometry">
            <mxPoint x="780" y="1160" as="sourcePoint" />
            <mxPoint x="880" y="1160" as="targetPoint" />
          </mxGeometry>
        </mxCell>
        <mxCell id="CVVJZ549YovdGznMH3PS-11" value="" style="endArrow=classic;startArrow=classic;html=1;rounded=0;" parent="1" edge="1">
          <mxGeometry width="50" height="50" relative="1" as="geometry">
            <mxPoint x="1140" y="1160" as="sourcePoint" />
            <mxPoint x="1180" y="1160" as="targetPoint" />
          </mxGeometry>
        </mxCell>
        <mxCell id="nExt7kv5y88nPhJqM-5s-9" value="" style="rounded=0;whiteSpace=wrap;html=1;fillColor=none;" parent="1" vertex="1">
          <mxGeometry x="1330" y="1180" width="40" height="60" as="geometry" />
        </mxCell>
        <mxCell id="_8NzSkHsjTh1XrccXINs-1" value="" style="group" parent="1" vertex="1" connectable="0">
          <mxGeometry x="140" y="1480" width="1380" height="100" as="geometry" />
        </mxCell>
        <mxCell id="z4m7dzDND1Zy9vnOMDJ4-1" value="" style="endArrow=classic;html=1;rounded=0;" parent="_8NzSkHsjTh1XrccXINs-1" edge="1">
          <mxGeometry width="50" height="50" relative="1" as="geometry">
            <mxPoint x="60" y="80" as="sourcePoint" />
            <mxPoint x="1380" y="80" as="targetPoint" />
          </mxGeometry>
        </mxCell>
        <mxCell id="z4m7dzDND1Zy9vnOMDJ4-6" value="" style="html=1;verticalLabelPosition=bottom;labelBackgroundColor=#ffffff;verticalAlign=top;shadow=0;dashed=0;strokeWidth=1;shape=mxgraph.ios7.misc.iphone;" parent="_8NzSkHsjTh1XrccXINs-1" vertex="1">
          <mxGeometry width="40" height="70" as="geometry" />
        </mxCell>
        <mxCell id="z4m7dzDND1Zy9vnOMDJ4-83" value="" style="shape=parallelogram;perimeter=parallelogramPerimeter;whiteSpace=wrap;html=1;fixedSize=1;fillColor=#4299E1;size=20;" parent="_8NzSkHsjTh1XrccXINs-1" vertex="1">
          <mxGeometry x="100" y="20" width="120" height="60" as="geometry" />
        </mxCell>
        <mxCell id="z4m7dzDND1Zy9vnOMDJ4-91" value="" style="endArrow=classic;html=1;rounded=0;exitX=1;exitY=0.5;exitDx=0;exitDy=0;" parent="_8NzSkHsjTh1XrccXINs-1" edge="1">
          <mxGeometry width="50" height="50" relative="1" as="geometry">
            <mxPoint x="210" y="49.84000000000003" as="sourcePoint" />
            <mxPoint x="300" y="49.84000000000003" as="targetPoint" />
          </mxGeometry>
        </mxCell>
        <mxCell id="z4m7dzDND1Zy9vnOMDJ4-102" value="" style="shape=parallelogram;perimeter=parallelogramPerimeter;whiteSpace=wrap;html=1;fixedSize=1;fillColor=#4299E1;size=20;" parent="_8NzSkHsjTh1XrccXINs-1" vertex="1">
          <mxGeometry x="300" y="20" width="40" height="60" as="geometry" />
        </mxCell>
        <mxCell id="z4m7dzDND1Zy9vnOMDJ4-103" value="" style="shape=parallelogram;perimeter=parallelogramPerimeter;whiteSpace=wrap;html=1;fixedSize=1;fillColor=#4299E1;size=20;" parent="_8NzSkHsjTh1XrccXINs-1" vertex="1">
          <mxGeometry x="320" y="20" width="40" height="60" as="geometry" />
        </mxCell>
        <mxCell id="z4m7dzDND1Zy9vnOMDJ4-104" value="" style="shape=parallelogram;perimeter=parallelogramPerimeter;whiteSpace=wrap;html=1;fixedSize=1;fillColor=default;size=20;" parent="_8NzSkHsjTh1XrccXINs-1" vertex="1">
          <mxGeometry x="340" y="20" width="40" height="60" as="geometry" />
        </mxCell>
        <mxCell id="z4m7dzDND1Zy9vnOMDJ4-105" value="" style="shape=parallelogram;perimeter=parallelogramPerimeter;whiteSpace=wrap;html=1;fixedSize=1;fillColor=default;size=20;" parent="_8NzSkHsjTh1XrccXINs-1" vertex="1">
          <mxGeometry x="360" y="20" width="40" height="60" as="geometry" />
        </mxCell>
        <mxCell id="z4m7dzDND1Zy9vnOMDJ4-106" value="" style="shape=parallelogram;perimeter=parallelogramPerimeter;whiteSpace=wrap;html=1;fixedSize=1;fillColor=default;size=20;" parent="_8NzSkHsjTh1XrccXINs-1" vertex="1">
          <mxGeometry x="380" y="20" width="40" height="60" as="geometry" />
        </mxCell>
        <mxCell id="z4m7dzDND1Zy9vnOMDJ4-120" value="" style="shape=parallelogram;perimeter=parallelogramPerimeter;whiteSpace=wrap;html=1;fixedSize=1;fillColor=#4299E1;size=20;" parent="_8NzSkHsjTh1XrccXINs-1" vertex="1">
          <mxGeometry x="640" y="20" width="40" height="60" as="geometry" />
        </mxCell>
        <mxCell id="z4m7dzDND1Zy9vnOMDJ4-121" value="" style="shape=parallelogram;perimeter=parallelogramPerimeter;whiteSpace=wrap;html=1;fixedSize=1;fillColor=#4299E1;size=20;" parent="_8NzSkHsjTh1XrccXINs-1" vertex="1">
          <mxGeometry x="660" y="20" width="40" height="60" as="geometry" />
        </mxCell>
        <mxCell id="z4m7dzDND1Zy9vnOMDJ4-122" value="" style="shape=parallelogram;perimeter=parallelogramPerimeter;whiteSpace=wrap;html=1;fixedSize=1;fillColor=#4299E1;size=20;" parent="_8NzSkHsjTh1XrccXINs-1" vertex="1">
          <mxGeometry x="680" y="20" width="40" height="60" as="geometry" />
        </mxCell>
        <mxCell id="z4m7dzDND1Zy9vnOMDJ4-133" value="" style="rounded=0;whiteSpace=wrap;html=1;fillColor=none;" parent="_8NzSkHsjTh1XrccXINs-1" vertex="1">
          <mxGeometry x="720" y="20" width="90" height="60" as="geometry" />
        </mxCell>
        <mxCell id="z4m7dzDND1Zy9vnOMDJ4-141" value="" style="rounded=0;whiteSpace=wrap;html=1;fillColor=none;dashed=1;" parent="_8NzSkHsjTh1XrccXINs-1" vertex="1">
          <mxGeometry x="870" y="20" width="40" height="60" as="geometry" />
        </mxCell>
        <mxCell id="z4m7dzDND1Zy9vnOMDJ4-149" value="" style="shape=parallelogram;perimeter=parallelogramPerimeter;whiteSpace=wrap;html=1;fixedSize=1;fillColor=#4299E1;size=20;" parent="_8NzSkHsjTh1XrccXINs-1" vertex="1">
          <mxGeometry x="1000" y="20" width="40" height="60" as="geometry" />
        </mxCell>
        <mxCell id="z4m7dzDND1Zy9vnOMDJ4-150" value="" style="shape=parallelogram;perimeter=parallelogramPerimeter;whiteSpace=wrap;html=1;fixedSize=1;fillColor=default;size=20;" parent="_8NzSkHsjTh1XrccXINs-1" vertex="1">
          <mxGeometry x="1020" y="20" width="40" height="60" as="geometry" />
        </mxCell>
        <mxCell id="z4m7dzDND1Zy9vnOMDJ4-151" value="" style="shape=parallelogram;perimeter=parallelogramPerimeter;whiteSpace=wrap;html=1;fixedSize=1;fillColor=default;size=20;" parent="_8NzSkHsjTh1XrccXINs-1" vertex="1">
          <mxGeometry x="1040" y="20" width="40" height="60" as="geometry" />
        </mxCell>
        <mxCell id="z4m7dzDND1Zy9vnOMDJ4-152" value="" style="shape=parallelogram;perimeter=parallelogramPerimeter;whiteSpace=wrap;html=1;fixedSize=1;fillColor=default;size=20;" parent="_8NzSkHsjTh1XrccXINs-1" vertex="1">
          <mxGeometry x="1060" y="20" width="40" height="60" as="geometry" />
        </mxCell>
        <mxCell id="z4m7dzDND1Zy9vnOMDJ4-153" value="" style="shape=parallelogram;perimeter=parallelogramPerimeter;whiteSpace=wrap;html=1;fixedSize=1;fillColor=default;size=20;" parent="_8NzSkHsjTh1XrccXINs-1" vertex="1">
          <mxGeometry x="1080" y="20" width="40" height="60" as="geometry" />
        </mxCell>
        <mxCell id="z4m7dzDND1Zy9vnOMDJ4-154" value="" style="shape=parallelogram;perimeter=parallelogramPerimeter;whiteSpace=wrap;html=1;fixedSize=1;fillColor=default;size=20;" parent="_8NzSkHsjTh1XrccXINs-1" vertex="1">
          <mxGeometry x="1100" y="20" width="40" height="60" as="geometry" />
        </mxCell>
        <mxCell id="CVVJZ549YovdGznMH3PS-5" value="" style="endArrow=classic;startArrow=classic;html=1;rounded=0;" parent="_8NzSkHsjTh1XrccXINs-1" edge="1">
          <mxGeometry width="50" height="50" relative="1" as="geometry">
            <mxPoint x="300" as="sourcePoint" />
            <mxPoint x="420" as="targetPoint" />
          </mxGeometry>
        </mxCell>
        <mxCell id="CVVJZ549YovdGznMH3PS-6" value="" style="endArrow=classic;startArrow=classic;html=1;rounded=0;" parent="_8NzSkHsjTh1XrccXINs-1" edge="1">
          <mxGeometry width="50" height="50" relative="1" as="geometry">
            <mxPoint x="300" y="100" as="sourcePoint" />
            <mxPoint x="420" y="100" as="targetPoint" />
          </mxGeometry>
        </mxCell>
        <mxCell id="CVVJZ549YovdGznMH3PS-9" value="" style="endArrow=classic;startArrow=classic;html=1;rounded=0;" parent="_8NzSkHsjTh1XrccXINs-1" edge="1">
          <mxGeometry width="50" height="50" relative="1" as="geometry">
            <mxPoint x="640" as="sourcePoint" />
            <mxPoint x="720" as="targetPoint" />
          </mxGeometry>
        </mxCell>
        <mxCell id="CVVJZ549YovdGznMH3PS-12" value="" style="endArrow=classic;startArrow=classic;html=1;rounded=0;" parent="_8NzSkHsjTh1XrccXINs-1" edge="1">
          <mxGeometry width="50" height="50" relative="1" as="geometry">
            <mxPoint x="1000" as="sourcePoint" />
            <mxPoint x="1140" as="targetPoint" />
          </mxGeometry>
        </mxCell>
        <mxCell id="nExt7kv5y88nPhJqM-5s-6" value="" style="rounded=0;whiteSpace=wrap;html=1;fillColor=none;" parent="_8NzSkHsjTh1XrccXINs-1" vertex="1">
          <mxGeometry x="870" y="20" width="40" height="60" as="geometry" />
        </mxCell>
        <mxCell id="BHVyoiv2czSVlKiLZK6J-2" value="" style="group" vertex="1" connectable="0" parent="1">
          <mxGeometry x="126.88" y="810" width="1393.12" height="290" as="geometry" />
        </mxCell>
        <mxCell id="8MUEx2jzXtJNU1HR3N2--1" value="" style="endArrow=classic;html=1;rounded=0;" parent="BHVyoiv2czSVlKiLZK6J-2" edge="1">
          <mxGeometry width="50" height="50" relative="1" as="geometry">
            <mxPoint x="73.12" y="110" as="sourcePoint" />
            <mxPoint x="1393.12" y="110" as="targetPoint" />
          </mxGeometry>
        </mxCell>
        <mxCell id="8MUEx2jzXtJNU1HR3N2--2" value="" style="endArrow=classic;html=1;rounded=0;" parent="BHVyoiv2czSVlKiLZK6J-2" edge="1">
          <mxGeometry width="50" height="50" relative="1" as="geometry">
            <mxPoint x="73.12" y="270" as="sourcePoint" />
            <mxPoint x="1393.12" y="270" as="targetPoint" />
          </mxGeometry>
        </mxCell>
        <mxCell id="z4m7dzDND1Zy9vnOMDJ4-2" value="" style="html=1;verticalLabelPosition=bottom;labelBackgroundColor=#ffffff;verticalAlign=top;shadow=0;dashed=0;strokeWidth=1;shape=mxgraph.ios7.misc.iphone;" parent="BHVyoiv2czSVlKiLZK6J-2" vertex="1">
          <mxGeometry x="13.120000000000005" y="190" width="40" height="70" as="geometry" />
        </mxCell>
        <mxCell id="z4m7dzDND1Zy9vnOMDJ4-56" value="" style="group" parent="BHVyoiv2czSVlKiLZK6J-2" vertex="1" connectable="0">
          <mxGeometry width="66.25" height="100" as="geometry" />
        </mxCell>
        <mxCell id="z4m7dzDND1Zy9vnOMDJ4-57" value="" style="endArrow=none;html=1;rounded=0;" parent="z4m7dzDND1Zy9vnOMDJ4-56" edge="1">
          <mxGeometry width="50" height="50" relative="1" as="geometry">
            <mxPoint y="75.99999999999999" as="sourcePoint" />
            <mxPoint x="33.125" y="60" as="targetPoint" />
          </mxGeometry>
        </mxCell>
        <mxCell id="z4m7dzDND1Zy9vnOMDJ4-58" value="" style="endArrow=none;html=1;rounded=0;" parent="z4m7dzDND1Zy9vnOMDJ4-56" edge="1">
          <mxGeometry width="50" height="50" relative="1" as="geometry">
            <mxPoint x="33.125" y="83.99999999999997" as="sourcePoint" />
            <mxPoint x="66.25" y="68" as="targetPoint" />
          </mxGeometry>
        </mxCell>
        <mxCell id="z4m7dzDND1Zy9vnOMDJ4-59" value="" style="endArrow=none;html=1;rounded=0;" parent="z4m7dzDND1Zy9vnOMDJ4-56" edge="1">
          <mxGeometry width="50" height="50" relative="1" as="geometry">
            <mxPoint x="33.125" y="60" as="sourcePoint" />
            <mxPoint x="66.25" y="68" as="targetPoint" />
          </mxGeometry>
        </mxCell>
        <mxCell id="z4m7dzDND1Zy9vnOMDJ4-60" value="" style="endArrow=none;html=1;rounded=0;" parent="z4m7dzDND1Zy9vnOMDJ4-56" edge="1">
          <mxGeometry width="50" height="50" relative="1" as="geometry">
            <mxPoint y="75.99999999999999" as="sourcePoint" />
            <mxPoint x="33.125" y="83.99999999999997" as="targetPoint" />
          </mxGeometry>
        </mxCell>
        <mxCell id="z4m7dzDND1Zy9vnOMDJ4-61" value="" style="endArrow=none;html=1;rounded=0;" parent="z4m7dzDND1Zy9vnOMDJ4-56" edge="1">
          <mxGeometry width="50" height="50" relative="1" as="geometry">
            <mxPoint x="33.125" y="83.99999999999997" as="sourcePoint" />
            <mxPoint x="33.125" y="100" as="targetPoint" />
          </mxGeometry>
        </mxCell>
        <mxCell id="z4m7dzDND1Zy9vnOMDJ4-62" value="" style="endArrow=none;html=1;rounded=0;" parent="z4m7dzDND1Zy9vnOMDJ4-56" edge="1">
          <mxGeometry width="50" height="50" relative="1" as="geometry">
            <mxPoint y="75.99999999999999" as="sourcePoint" />
            <mxPoint y="91.99999999999999" as="targetPoint" />
          </mxGeometry>
        </mxCell>
        <mxCell id="z4m7dzDND1Zy9vnOMDJ4-63" value="" style="endArrow=none;html=1;rounded=0;" parent="z4m7dzDND1Zy9vnOMDJ4-56" edge="1">
          <mxGeometry width="50" height="50" relative="1" as="geometry">
            <mxPoint y="91.99999999999999" as="sourcePoint" />
            <mxPoint x="33.125" y="100" as="targetPoint" />
          </mxGeometry>
        </mxCell>
        <mxCell id="z4m7dzDND1Zy9vnOMDJ4-64" value="" style="endArrow=none;html=1;rounded=0;" parent="z4m7dzDND1Zy9vnOMDJ4-56" edge="1">
          <mxGeometry width="50" height="50" relative="1" as="geometry">
            <mxPoint x="33.125" y="100" as="sourcePoint" />
            <mxPoint x="66.25" y="83.99999999999997" as="targetPoint" />
          </mxGeometry>
        </mxCell>
        <mxCell id="z4m7dzDND1Zy9vnOMDJ4-65" value="" style="endArrow=none;html=1;rounded=0;" parent="z4m7dzDND1Zy9vnOMDJ4-56" edge="1">
          <mxGeometry width="50" height="50" relative="1" as="geometry">
            <mxPoint x="66.25" y="68" as="sourcePoint" />
            <mxPoint x="66.25" y="83.99999999999997" as="targetPoint" />
          </mxGeometry>
        </mxCell>
        <mxCell id="z4m7dzDND1Zy9vnOMDJ4-66" value="" style="endArrow=none;html=1;rounded=0;" parent="z4m7dzDND1Zy9vnOMDJ4-56" edge="1">
          <mxGeometry width="50" height="50" relative="1" as="geometry">
            <mxPoint x="33.125" y="71.99999999999999" as="sourcePoint" />
            <mxPoint x="33.125" y="40" as="targetPoint" />
          </mxGeometry>
        </mxCell>
        <mxCell id="z4m7dzDND1Zy9vnOMDJ4-67" value="" style="endArrow=none;html=1;rounded=0;" parent="z4m7dzDND1Zy9vnOMDJ4-56" edge="1">
          <mxGeometry width="50" height="50" relative="1" as="geometry">
            <mxPoint x="16.5625" y="71.99999999999999" as="sourcePoint" />
            <mxPoint x="33.125" y="63.99999999999998" as="targetPoint" />
          </mxGeometry>
        </mxCell>
        <mxCell id="z4m7dzDND1Zy9vnOMDJ4-68" value="" style="endArrow=none;html=1;rounded=0;" parent="z4m7dzDND1Zy9vnOMDJ4-56" edge="1">
          <mxGeometry width="50" height="50" relative="1" as="geometry">
            <mxPoint x="33.125" y="63.99999999999998" as="sourcePoint" />
            <mxPoint x="49.68749999999999" y="68" as="targetPoint" />
          </mxGeometry>
        </mxCell>
        <mxCell id="z4m7dzDND1Zy9vnOMDJ4-69" value="" style="endArrow=none;html=1;rounded=0;" parent="z4m7dzDND1Zy9vnOMDJ4-56" edge="1">
          <mxGeometry width="50" height="50" relative="1" as="geometry">
            <mxPoint x="33.125" y="75.99999999999999" as="sourcePoint" />
            <mxPoint x="49.68749999999999" y="68" as="targetPoint" />
          </mxGeometry>
        </mxCell>
        <mxCell id="z4m7dzDND1Zy9vnOMDJ4-70" value="" style="endArrow=none;html=1;rounded=0;" parent="z4m7dzDND1Zy9vnOMDJ4-56" edge="1">
          <mxGeometry width="50" height="50" relative="1" as="geometry">
            <mxPoint x="16.5625" y="71.99999999999999" as="sourcePoint" />
            <mxPoint x="33.125" y="75.99999999999999" as="targetPoint" />
          </mxGeometry>
        </mxCell>
        <mxCell id="z4m7dzDND1Zy9vnOMDJ4-71" value="" style="endArrow=none;html=1;rounded=0;" parent="z4m7dzDND1Zy9vnOMDJ4-56" edge="1">
          <mxGeometry width="50" height="50" relative="1" as="geometry">
            <mxPoint x="33.125" y="80" as="sourcePoint" />
            <mxPoint x="33.125" y="75.99999999999999" as="targetPoint" />
          </mxGeometry>
        </mxCell>
        <mxCell id="z4m7dzDND1Zy9vnOMDJ4-72" value="" style="endArrow=none;html=1;rounded=0;" parent="z4m7dzDND1Zy9vnOMDJ4-56" edge="1">
          <mxGeometry width="50" height="50" relative="1" as="geometry">
            <mxPoint x="16.5625" y="71.99999999999999" as="sourcePoint" />
            <mxPoint x="16.5625" y="75.99999999999999" as="targetPoint" />
          </mxGeometry>
        </mxCell>
        <mxCell id="z4m7dzDND1Zy9vnOMDJ4-73" value="" style="endArrow=none;html=1;rounded=0;" parent="z4m7dzDND1Zy9vnOMDJ4-56" edge="1">
          <mxGeometry width="50" height="50" relative="1" as="geometry">
            <mxPoint x="49.68749999999999" y="68" as="sourcePoint" />
            <mxPoint x="49.68749999999999" y="71.99999999999999" as="targetPoint" />
          </mxGeometry>
        </mxCell>
        <mxCell id="z4m7dzDND1Zy9vnOMDJ4-74" value="" style="endArrow=none;html=1;rounded=0;" parent="z4m7dzDND1Zy9vnOMDJ4-56" edge="1">
          <mxGeometry width="50" height="50" relative="1" as="geometry">
            <mxPoint x="33.125" y="80" as="sourcePoint" />
            <mxPoint x="49.68749999999999" y="71.99999999999999" as="targetPoint" />
          </mxGeometry>
        </mxCell>
        <mxCell id="z4m7dzDND1Zy9vnOMDJ4-75" value="" style="endArrow=none;html=1;rounded=0;" parent="z4m7dzDND1Zy9vnOMDJ4-56" edge="1">
          <mxGeometry width="50" height="50" relative="1" as="geometry">
            <mxPoint x="16.5625" y="75.99999999999999" as="sourcePoint" />
            <mxPoint x="33.125" y="80" as="targetPoint" />
          </mxGeometry>
        </mxCell>
        <mxCell id="z4m7dzDND1Zy9vnOMDJ4-76" value="" style="shape=cylinder3;whiteSpace=wrap;html=1;boundedLbl=1;backgroundOutline=1;size=3.3333333333333997;" parent="z4m7dzDND1Zy9vnOMDJ4-56" vertex="1">
          <mxGeometry x="49.68749999999999" width="4.140625" height="31.99999999999999" as="geometry" />
        </mxCell>
        <mxCell id="z4m7dzDND1Zy9vnOMDJ4-77" value="" style="endArrow=none;html=1;rounded=0;" parent="z4m7dzDND1Zy9vnOMDJ4-56" edge="1">
          <mxGeometry width="50" height="50" relative="1" as="geometry">
            <mxPoint x="16.5625" y="47.99999999999999" as="sourcePoint" />
            <mxPoint x="49.68749999999999" y="31.99999999999999" as="targetPoint" />
          </mxGeometry>
        </mxCell>
        <mxCell id="z4m7dzDND1Zy9vnOMDJ4-78" value="" style="shape=cylinder3;whiteSpace=wrap;html=1;boundedLbl=1;backgroundOutline=1;size=3.3333333333333997;" parent="z4m7dzDND1Zy9vnOMDJ4-56" vertex="1">
          <mxGeometry x="31.0546875" y="7.999999999999997" width="4.140625" height="31.99999999999999" as="geometry" />
        </mxCell>
        <mxCell id="z4m7dzDND1Zy9vnOMDJ4-79" value="" style="shape=cylinder3;whiteSpace=wrap;html=1;boundedLbl=1;backgroundOutline=1;size=3.3333333333333997;" parent="z4m7dzDND1Zy9vnOMDJ4-56" vertex="1">
          <mxGeometry x="12.835937499999998" y="15.999999999999995" width="4.140625" height="31.99999999999999" as="geometry" />
        </mxCell>
        <mxCell id="z4m7dzDND1Zy9vnOMDJ4-80" value="" style="shape=parallelogram;perimeter=parallelogramPerimeter;whiteSpace=wrap;html=1;fixedSize=1;fillColor=#4299E1;size=20;" parent="BHVyoiv2czSVlKiLZK6J-2" vertex="1">
          <mxGeometry x="113.12" y="50" width="120" height="60" as="geometry" />
        </mxCell>
        <mxCell id="z4m7dzDND1Zy9vnOMDJ4-81" value="" style="shape=parallelogram;perimeter=parallelogramPerimeter;whiteSpace=wrap;html=1;fixedSize=1;fillColor=#4299E1;size=20;" parent="BHVyoiv2czSVlKiLZK6J-2" vertex="1">
          <mxGeometry x="113.12" y="210" width="120" height="60" as="geometry" />
        </mxCell>
        <mxCell id="z4m7dzDND1Zy9vnOMDJ4-88" value="" style="endArrow=classic;html=1;rounded=0;exitX=1;exitY=0.5;exitDx=0;exitDy=0;" parent="BHVyoiv2czSVlKiLZK6J-2" source="z4m7dzDND1Zy9vnOMDJ4-80" edge="1">
          <mxGeometry width="50" height="50" relative="1" as="geometry">
            <mxPoint x="253.12" y="105" as="sourcePoint" />
            <mxPoint x="313.12" y="80" as="targetPoint" />
          </mxGeometry>
        </mxCell>
        <mxCell id="z4m7dzDND1Zy9vnOMDJ4-89" value="" style="endArrow=classic;html=1;rounded=0;exitX=1;exitY=0.5;exitDx=0;exitDy=0;" parent="BHVyoiv2czSVlKiLZK6J-2" edge="1">
          <mxGeometry width="50" height="50" relative="1" as="geometry">
            <mxPoint x="223.12" y="239.84000000000015" as="sourcePoint" />
            <mxPoint x="313.12" y="239.84000000000015" as="targetPoint" />
          </mxGeometry>
        </mxCell>
        <mxCell id="z4m7dzDND1Zy9vnOMDJ4-94" value="" style="shape=parallelogram;perimeter=parallelogramPerimeter;whiteSpace=wrap;html=1;fixedSize=1;fillColor=#4299E1;size=20;" parent="BHVyoiv2czSVlKiLZK6J-2" vertex="1">
          <mxGeometry x="313.12" y="210" width="40" height="60" as="geometry" />
        </mxCell>
        <mxCell id="z4m7dzDND1Zy9vnOMDJ4-95" value="" style="shape=parallelogram;perimeter=parallelogramPerimeter;whiteSpace=wrap;html=1;fixedSize=1;fillColor=#4299E1;size=20;" parent="BHVyoiv2czSVlKiLZK6J-2" vertex="1">
          <mxGeometry x="333.12" y="210" width="40" height="60" as="geometry" />
        </mxCell>
        <mxCell id="z4m7dzDND1Zy9vnOMDJ4-108" value="" style="rounded=0;whiteSpace=wrap;html=1;fillColor=none;" parent="BHVyoiv2czSVlKiLZK6J-2" vertex="1">
          <mxGeometry x="373.12" y="210" width="90" height="60" as="geometry" />
        </mxCell>
        <mxCell id="z4m7dzDND1Zy9vnOMDJ4-109" value="" style="endArrow=classic;html=1;rounded=0;" parent="BHVyoiv2czSVlKiLZK6J-2" edge="1">
          <mxGeometry width="50" height="50" relative="1" as="geometry">
            <mxPoint x="417.83000000000004" y="210" as="sourcePoint" />
            <mxPoint x="417.83000000000004" y="110" as="targetPoint" />
          </mxGeometry>
        </mxCell>
        <mxCell id="z4m7dzDND1Zy9vnOMDJ4-110" value="" style="rounded=0;whiteSpace=wrap;html=1;fillColor=none;dashed=1;" parent="BHVyoiv2czSVlKiLZK6J-2" vertex="1">
          <mxGeometry x="373.12" y="50" width="90" height="60" as="geometry" />
        </mxCell>
        <mxCell id="z4m7dzDND1Zy9vnOMDJ4-111" value="" style="endArrow=classic;html=1;rounded=0;" parent="BHVyoiv2czSVlKiLZK6J-2" edge="1">
          <mxGeometry width="50" height="50" relative="1" as="geometry">
            <mxPoint x="463.12" y="79.71000000000004" as="sourcePoint" />
            <mxPoint x="523.12" y="79.71000000000004" as="targetPoint" />
          </mxGeometry>
        </mxCell>
        <mxCell id="z4m7dzDND1Zy9vnOMDJ4-112" value="" style="rounded=0;whiteSpace=wrap;html=1;fillColor=none;" parent="BHVyoiv2czSVlKiLZK6J-2" vertex="1">
          <mxGeometry x="523.12" y="50" width="40" height="60" as="geometry" />
        </mxCell>
        <mxCell id="z4m7dzDND1Zy9vnOMDJ4-113" value="" style="endArrow=classic;html=1;rounded=0;exitX=1;exitY=0.5;exitDx=0;exitDy=0;" parent="BHVyoiv2czSVlKiLZK6J-2" edge="1">
          <mxGeometry width="50" height="50" relative="1" as="geometry">
            <mxPoint x="563.12" y="79.71000000000004" as="sourcePoint" />
            <mxPoint x="653.12" y="79.71000000000004" as="targetPoint" />
          </mxGeometry>
        </mxCell>
        <mxCell id="z4m7dzDND1Zy9vnOMDJ4-114" value="" style="endArrow=classic;html=1;rounded=0;exitX=0.5;exitY=1;exitDx=0;exitDy=0;entryX=0.5;entryY=0;entryDx=0;entryDy=0;" parent="BHVyoiv2czSVlKiLZK6J-2" target="z4m7dzDND1Zy9vnOMDJ4-115" edge="1">
          <mxGeometry width="50" height="50" relative="1" as="geometry">
            <mxPoint x="543.12" y="110" as="sourcePoint" />
            <mxPoint x="573.12" y="210" as="targetPoint" />
          </mxGeometry>
        </mxCell>
        <mxCell id="z4m7dzDND1Zy9vnOMDJ4-115" value="" style="rounded=0;whiteSpace=wrap;html=1;fillColor=none;dashed=1;" parent="BHVyoiv2czSVlKiLZK6J-2" vertex="1">
          <mxGeometry x="523.12" y="210" width="40" height="60" as="geometry" />
        </mxCell>
        <mxCell id="z4m7dzDND1Zy9vnOMDJ4-116" value="" style="endArrow=classic;html=1;rounded=0;exitX=1;exitY=0.5;exitDx=0;exitDy=0;" parent="BHVyoiv2czSVlKiLZK6J-2" edge="1">
          <mxGeometry width="50" height="50" relative="1" as="geometry">
            <mxPoint x="563.12" y="239.71000000000004" as="sourcePoint" />
            <mxPoint x="653.12" y="239.71000000000004" as="targetPoint" />
          </mxGeometry>
        </mxCell>
        <mxCell id="z4m7dzDND1Zy9vnOMDJ4-127" value="" style="shape=parallelogram;perimeter=parallelogramPerimeter;whiteSpace=wrap;html=1;fixedSize=1;fillColor=#4299E1;size=20;" parent="BHVyoiv2czSVlKiLZK6J-2" vertex="1">
          <mxGeometry x="653.12" y="210" width="40" height="60" as="geometry" />
        </mxCell>
        <mxCell id="z4m7dzDND1Zy9vnOMDJ4-128" value="" style="shape=parallelogram;perimeter=parallelogramPerimeter;whiteSpace=wrap;html=1;fixedSize=1;fillColor=#4299E1;size=20;" parent="BHVyoiv2czSVlKiLZK6J-2" vertex="1">
          <mxGeometry x="673.12" y="210" width="40" height="60" as="geometry" />
        </mxCell>
        <mxCell id="z4m7dzDND1Zy9vnOMDJ4-129" value="" style="shape=parallelogram;perimeter=parallelogramPerimeter;whiteSpace=wrap;html=1;fixedSize=1;fillColor=#4299E1;size=20;" parent="BHVyoiv2czSVlKiLZK6J-2" vertex="1">
          <mxGeometry x="693.12" y="210" width="40" height="60" as="geometry" />
        </mxCell>
        <mxCell id="z4m7dzDND1Zy9vnOMDJ4-130" value="" style="shape=parallelogram;perimeter=parallelogramPerimeter;whiteSpace=wrap;html=1;fixedSize=1;fillColor=default;size=20;" parent="BHVyoiv2czSVlKiLZK6J-2" vertex="1">
          <mxGeometry x="713.12" y="210" width="40" height="60" as="geometry" />
        </mxCell>
        <mxCell id="z4m7dzDND1Zy9vnOMDJ4-131" value="" style="shape=parallelogram;perimeter=parallelogramPerimeter;whiteSpace=wrap;html=1;fixedSize=1;fillColor=default;size=20;" parent="BHVyoiv2czSVlKiLZK6J-2" vertex="1">
          <mxGeometry x="733.12" y="210" width="40" height="60" as="geometry" />
        </mxCell>
        <mxCell id="z4m7dzDND1Zy9vnOMDJ4-132" value="" style="shape=parallelogram;perimeter=parallelogramPerimeter;whiteSpace=wrap;html=1;fixedSize=1;fillColor=default;size=20;" parent="BHVyoiv2czSVlKiLZK6J-2" vertex="1">
          <mxGeometry x="753.12" y="210" width="40" height="60" as="geometry" />
        </mxCell>
        <mxCell id="z4m7dzDND1Zy9vnOMDJ4-135" value="" style="rounded=0;whiteSpace=wrap;html=1;fillColor=none;dashed=1;" parent="BHVyoiv2czSVlKiLZK6J-2" vertex="1">
          <mxGeometry x="733.12" y="50" width="90" height="60" as="geometry" />
        </mxCell>
        <mxCell id="z4m7dzDND1Zy9vnOMDJ4-137" value="" style="endArrow=classic;html=1;rounded=0;" parent="BHVyoiv2czSVlKiLZK6J-2" edge="1">
          <mxGeometry width="50" height="50" relative="1" as="geometry">
            <mxPoint x="823.12" y="79.71000000000004" as="sourcePoint" />
            <mxPoint x="883.12" y="79.71000000000004" as="targetPoint" />
          </mxGeometry>
        </mxCell>
        <mxCell id="z4m7dzDND1Zy9vnOMDJ4-138" value="" style="rounded=0;whiteSpace=wrap;html=1;fillColor=none;" parent="BHVyoiv2czSVlKiLZK6J-2" vertex="1">
          <mxGeometry x="883.12" y="50" width="40" height="60" as="geometry" />
        </mxCell>
        <mxCell id="z4m7dzDND1Zy9vnOMDJ4-139" value="" style="endArrow=classic;html=1;rounded=0;exitX=1;exitY=0.5;exitDx=0;exitDy=0;" parent="BHVyoiv2czSVlKiLZK6J-2" edge="1">
          <mxGeometry width="50" height="50" relative="1" as="geometry">
            <mxPoint x="923.12" y="79.71000000000004" as="sourcePoint" />
            <mxPoint x="1013.12" y="79.71000000000004" as="targetPoint" />
          </mxGeometry>
        </mxCell>
        <mxCell id="z4m7dzDND1Zy9vnOMDJ4-163" value="" style="shape=parallelogram;perimeter=parallelogramPerimeter;whiteSpace=wrap;html=1;fixedSize=1;fillColor=#4299E1;size=20;" parent="BHVyoiv2czSVlKiLZK6J-2" vertex="1">
          <mxGeometry x="1013.12" y="210" width="40" height="60" as="geometry" />
        </mxCell>
        <mxCell id="z4m7dzDND1Zy9vnOMDJ4-164" value="" style="shape=parallelogram;perimeter=parallelogramPerimeter;whiteSpace=wrap;html=1;fixedSize=1;fillColor=default;size=20;" parent="BHVyoiv2czSVlKiLZK6J-2" vertex="1">
          <mxGeometry x="1033.12" y="210" width="40" height="60" as="geometry" />
        </mxCell>
        <mxCell id="z4m7dzDND1Zy9vnOMDJ4-166" value="" style="rounded=0;whiteSpace=wrap;html=1;fillColor=none;dashed=1;" parent="BHVyoiv2czSVlKiLZK6J-2" vertex="1">
          <mxGeometry x="1053.12" y="50" width="90" height="60" as="geometry" />
        </mxCell>
        <mxCell id="z4m7dzDND1Zy9vnOMDJ4-168" value="" style="endArrow=classic;html=1;rounded=0;" parent="BHVyoiv2czSVlKiLZK6J-2" edge="1">
          <mxGeometry width="50" height="50" relative="1" as="geometry">
            <mxPoint x="1143.12" y="79.71000000000004" as="sourcePoint" />
            <mxPoint x="1203.12" y="79.71000000000004" as="targetPoint" />
          </mxGeometry>
        </mxCell>
        <mxCell id="z4m7dzDND1Zy9vnOMDJ4-169" value="" style="rounded=0;whiteSpace=wrap;html=1;fillColor=none;" parent="BHVyoiv2czSVlKiLZK6J-2" vertex="1">
          <mxGeometry x="1203.12" y="50" width="40" height="60" as="geometry" />
        </mxCell>
        <mxCell id="z4m7dzDND1Zy9vnOMDJ4-172" value="" style="endArrow=classic;html=1;rounded=0;exitX=1;exitY=0.5;exitDx=0;exitDy=0;" parent="BHVyoiv2czSVlKiLZK6J-2" edge="1">
          <mxGeometry width="50" height="50" relative="1" as="geometry">
            <mxPoint x="1243.12" y="79.57999999999993" as="sourcePoint" />
            <mxPoint x="1333.12" y="79.57999999999993" as="targetPoint" />
          </mxGeometry>
        </mxCell>
        <mxCell id="CVVJZ549YovdGznMH3PS-1" value="" style="endArrow=classic;startArrow=classic;html=1;rounded=0;" parent="BHVyoiv2czSVlKiLZK6J-2" edge="1">
          <mxGeometry width="50" height="50" relative="1" as="geometry">
            <mxPoint x="313.12" y="290" as="sourcePoint" />
            <mxPoint x="373.12" y="290" as="targetPoint" />
          </mxGeometry>
        </mxCell>
        <mxCell id="CVVJZ549YovdGznMH3PS-2" value="" style="endArrow=classic;startArrow=classic;html=1;rounded=0;" parent="BHVyoiv2czSVlKiLZK6J-2" edge="1">
          <mxGeometry width="50" height="50" relative="1" as="geometry">
            <mxPoint x="313.12" y="190" as="sourcePoint" />
            <mxPoint x="373.12" y="190" as="targetPoint" />
          </mxGeometry>
        </mxCell>
        <mxCell id="CVVJZ549YovdGznMH3PS-7" value="" style="endArrow=classic;startArrow=classic;html=1;rounded=0;" parent="BHVyoiv2czSVlKiLZK6J-2" edge="1">
          <mxGeometry width="50" height="50" relative="1" as="geometry">
            <mxPoint x="653.12" y="190" as="sourcePoint" />
            <mxPoint x="793.12" y="190" as="targetPoint" />
          </mxGeometry>
        </mxCell>
        <mxCell id="CVVJZ549YovdGznMH3PS-10" value="" style="endArrow=classic;startArrow=classic;html=1;rounded=0;" parent="BHVyoiv2czSVlKiLZK6J-2" edge="1">
          <mxGeometry width="50" height="50" relative="1" as="geometry">
            <mxPoint x="1013.12" y="190" as="sourcePoint" />
            <mxPoint x="1073.12" y="190" as="targetPoint" />
          </mxGeometry>
        </mxCell>
        <mxCell id="nExt7kv5y88nPhJqM-5s-1" value="" style="rounded=0;whiteSpace=wrap;html=1;fillColor=none;" parent="BHVyoiv2czSVlKiLZK6J-2" vertex="1">
          <mxGeometry x="523.12" y="210" width="40" height="60" as="geometry" />
        </mxCell>
        <mxCell id="nExt7kv5y88nPhJqM-5s-2" value="" style="rounded=0;whiteSpace=wrap;html=1;fillColor=none;" parent="BHVyoiv2czSVlKiLZK6J-2" vertex="1">
          <mxGeometry x="373.12" y="50" width="90" height="60" as="geometry" />
        </mxCell>
        <mxCell id="nExt7kv5y88nPhJqM-5s-5" value="" style="rounded=0;whiteSpace=wrap;html=1;fillColor=none;" parent="BHVyoiv2czSVlKiLZK6J-2" vertex="1">
          <mxGeometry x="733.12" y="50" width="90" height="60" as="geometry" />
        </mxCell>
        <mxCell id="nExt7kv5y88nPhJqM-5s-8" value="" style="rounded=0;whiteSpace=wrap;html=1;fillColor=none;" parent="BHVyoiv2czSVlKiLZK6J-2" vertex="1">
          <mxGeometry x="1053.12" y="50" width="90" height="60" as="geometry" />
        </mxCell>
        <mxCell id="BHVyoiv2czSVlKiLZK6J-4" value="" style="endArrow=classic;html=1;rounded=0;" edge="1" parent="1">
          <mxGeometry width="50" height="50" relative="1" as="geometry">
            <mxPoint x="200" y="240" as="sourcePoint" />
            <mxPoint x="1520" y="240" as="targetPoint" />
          </mxGeometry>
        </mxCell>
        <mxCell id="BHVyoiv2czSVlKiLZK6J-5" value="" style="endArrow=classic;html=1;rounded=0;" edge="1" parent="1">
          <mxGeometry width="50" height="50" relative="1" as="geometry">
            <mxPoint x="200" y="400" as="sourcePoint" />
            <mxPoint x="1520" y="400" as="targetPoint" />
          </mxGeometry>
        </mxCell>
        <mxCell id="BHVyoiv2czSVlKiLZK6J-6" value="" style="html=1;verticalLabelPosition=bottom;labelBackgroundColor=#ffffff;verticalAlign=top;shadow=0;dashed=0;strokeWidth=1;shape=mxgraph.ios7.misc.iphone;" vertex="1" parent="1">
          <mxGeometry x="140" y="320" width="40" height="70" as="geometry" />
        </mxCell>
        <mxCell id="BHVyoiv2czSVlKiLZK6J-7" value="" style="group" vertex="1" connectable="0" parent="1">
          <mxGeometry x="126.88" y="130" width="66.25" height="100" as="geometry" />
        </mxCell>
        <mxCell id="BHVyoiv2czSVlKiLZK6J-8" value="" style="endArrow=none;html=1;rounded=0;" edge="1" parent="BHVyoiv2czSVlKiLZK6J-7">
          <mxGeometry width="50" height="50" relative="1" as="geometry">
            <mxPoint y="75.99999999999999" as="sourcePoint" />
            <mxPoint x="33.125" y="60" as="targetPoint" />
          </mxGeometry>
        </mxCell>
        <mxCell id="BHVyoiv2czSVlKiLZK6J-9" value="" style="endArrow=none;html=1;rounded=0;" edge="1" parent="BHVyoiv2czSVlKiLZK6J-7">
          <mxGeometry width="50" height="50" relative="1" as="geometry">
            <mxPoint x="33.125" y="83.99999999999997" as="sourcePoint" />
            <mxPoint x="66.25" y="68" as="targetPoint" />
          </mxGeometry>
        </mxCell>
        <mxCell id="BHVyoiv2czSVlKiLZK6J-10" value="" style="endArrow=none;html=1;rounded=0;" edge="1" parent="BHVyoiv2czSVlKiLZK6J-7">
          <mxGeometry width="50" height="50" relative="1" as="geometry">
            <mxPoint x="33.125" y="60" as="sourcePoint" />
            <mxPoint x="66.25" y="68" as="targetPoint" />
          </mxGeometry>
        </mxCell>
        <mxCell id="BHVyoiv2czSVlKiLZK6J-11" value="" style="endArrow=none;html=1;rounded=0;" edge="1" parent="BHVyoiv2czSVlKiLZK6J-7">
          <mxGeometry width="50" height="50" relative="1" as="geometry">
            <mxPoint y="75.99999999999999" as="sourcePoint" />
            <mxPoint x="33.125" y="83.99999999999997" as="targetPoint" />
          </mxGeometry>
        </mxCell>
        <mxCell id="BHVyoiv2czSVlKiLZK6J-12" value="" style="endArrow=none;html=1;rounded=0;" edge="1" parent="BHVyoiv2czSVlKiLZK6J-7">
          <mxGeometry width="50" height="50" relative="1" as="geometry">
            <mxPoint x="33.125" y="83.99999999999997" as="sourcePoint" />
            <mxPoint x="33.125" y="100" as="targetPoint" />
          </mxGeometry>
        </mxCell>
        <mxCell id="BHVyoiv2czSVlKiLZK6J-13" value="" style="endArrow=none;html=1;rounded=0;" edge="1" parent="BHVyoiv2czSVlKiLZK6J-7">
          <mxGeometry width="50" height="50" relative="1" as="geometry">
            <mxPoint y="75.99999999999999" as="sourcePoint" />
            <mxPoint y="91.99999999999999" as="targetPoint" />
          </mxGeometry>
        </mxCell>
        <mxCell id="BHVyoiv2czSVlKiLZK6J-14" value="" style="endArrow=none;html=1;rounded=0;" edge="1" parent="BHVyoiv2czSVlKiLZK6J-7">
          <mxGeometry width="50" height="50" relative="1" as="geometry">
            <mxPoint y="91.99999999999999" as="sourcePoint" />
            <mxPoint x="33.125" y="100" as="targetPoint" />
          </mxGeometry>
        </mxCell>
        <mxCell id="BHVyoiv2czSVlKiLZK6J-15" value="" style="endArrow=none;html=1;rounded=0;" edge="1" parent="BHVyoiv2czSVlKiLZK6J-7">
          <mxGeometry width="50" height="50" relative="1" as="geometry">
            <mxPoint x="33.125" y="100" as="sourcePoint" />
            <mxPoint x="66.25" y="83.99999999999997" as="targetPoint" />
          </mxGeometry>
        </mxCell>
        <mxCell id="BHVyoiv2czSVlKiLZK6J-16" value="" style="endArrow=none;html=1;rounded=0;" edge="1" parent="BHVyoiv2czSVlKiLZK6J-7">
          <mxGeometry width="50" height="50" relative="1" as="geometry">
            <mxPoint x="66.25" y="68" as="sourcePoint" />
            <mxPoint x="66.25" y="83.99999999999997" as="targetPoint" />
          </mxGeometry>
        </mxCell>
        <mxCell id="BHVyoiv2czSVlKiLZK6J-17" value="" style="endArrow=none;html=1;rounded=0;" edge="1" parent="BHVyoiv2czSVlKiLZK6J-7">
          <mxGeometry width="50" height="50" relative="1" as="geometry">
            <mxPoint x="33.125" y="71.99999999999999" as="sourcePoint" />
            <mxPoint x="33.125" y="40" as="targetPoint" />
          </mxGeometry>
        </mxCell>
        <mxCell id="BHVyoiv2czSVlKiLZK6J-18" value="" style="endArrow=none;html=1;rounded=0;" edge="1" parent="BHVyoiv2czSVlKiLZK6J-7">
          <mxGeometry width="50" height="50" relative="1" as="geometry">
            <mxPoint x="16.5625" y="71.99999999999999" as="sourcePoint" />
            <mxPoint x="33.125" y="63.99999999999998" as="targetPoint" />
          </mxGeometry>
        </mxCell>
        <mxCell id="BHVyoiv2czSVlKiLZK6J-19" value="" style="endArrow=none;html=1;rounded=0;" edge="1" parent="BHVyoiv2czSVlKiLZK6J-7">
          <mxGeometry width="50" height="50" relative="1" as="geometry">
            <mxPoint x="33.125" y="63.99999999999998" as="sourcePoint" />
            <mxPoint x="49.68749999999999" y="68" as="targetPoint" />
          </mxGeometry>
        </mxCell>
        <mxCell id="BHVyoiv2czSVlKiLZK6J-20" value="" style="endArrow=none;html=1;rounded=0;" edge="1" parent="BHVyoiv2czSVlKiLZK6J-7">
          <mxGeometry width="50" height="50" relative="1" as="geometry">
            <mxPoint x="33.125" y="75.99999999999999" as="sourcePoint" />
            <mxPoint x="49.68749999999999" y="68" as="targetPoint" />
          </mxGeometry>
        </mxCell>
        <mxCell id="BHVyoiv2czSVlKiLZK6J-21" value="" style="endArrow=none;html=1;rounded=0;" edge="1" parent="BHVyoiv2czSVlKiLZK6J-7">
          <mxGeometry width="50" height="50" relative="1" as="geometry">
            <mxPoint x="16.5625" y="71.99999999999999" as="sourcePoint" />
            <mxPoint x="33.125" y="75.99999999999999" as="targetPoint" />
          </mxGeometry>
        </mxCell>
        <mxCell id="BHVyoiv2czSVlKiLZK6J-22" value="" style="endArrow=none;html=1;rounded=0;" edge="1" parent="BHVyoiv2czSVlKiLZK6J-7">
          <mxGeometry width="50" height="50" relative="1" as="geometry">
            <mxPoint x="33.125" y="80" as="sourcePoint" />
            <mxPoint x="33.125" y="75.99999999999999" as="targetPoint" />
          </mxGeometry>
        </mxCell>
        <mxCell id="BHVyoiv2czSVlKiLZK6J-23" value="" style="endArrow=none;html=1;rounded=0;" edge="1" parent="BHVyoiv2czSVlKiLZK6J-7">
          <mxGeometry width="50" height="50" relative="1" as="geometry">
            <mxPoint x="16.5625" y="71.99999999999999" as="sourcePoint" />
            <mxPoint x="16.5625" y="75.99999999999999" as="targetPoint" />
          </mxGeometry>
        </mxCell>
        <mxCell id="BHVyoiv2czSVlKiLZK6J-24" value="" style="endArrow=none;html=1;rounded=0;" edge="1" parent="BHVyoiv2czSVlKiLZK6J-7">
          <mxGeometry width="50" height="50" relative="1" as="geometry">
            <mxPoint x="49.68749999999999" y="68" as="sourcePoint" />
            <mxPoint x="49.68749999999999" y="71.99999999999999" as="targetPoint" />
          </mxGeometry>
        </mxCell>
        <mxCell id="BHVyoiv2czSVlKiLZK6J-25" value="" style="endArrow=none;html=1;rounded=0;" edge="1" parent="BHVyoiv2czSVlKiLZK6J-7">
          <mxGeometry width="50" height="50" relative="1" as="geometry">
            <mxPoint x="33.125" y="80" as="sourcePoint" />
            <mxPoint x="49.68749999999999" y="71.99999999999999" as="targetPoint" />
          </mxGeometry>
        </mxCell>
        <mxCell id="BHVyoiv2czSVlKiLZK6J-26" value="" style="endArrow=none;html=1;rounded=0;" edge="1" parent="BHVyoiv2czSVlKiLZK6J-7">
          <mxGeometry width="50" height="50" relative="1" as="geometry">
            <mxPoint x="16.5625" y="75.99999999999999" as="sourcePoint" />
            <mxPoint x="33.125" y="80" as="targetPoint" />
          </mxGeometry>
        </mxCell>
        <mxCell id="BHVyoiv2czSVlKiLZK6J-27" value="" style="shape=cylinder3;whiteSpace=wrap;html=1;boundedLbl=1;backgroundOutline=1;size=3.3333333333333997;" vertex="1" parent="BHVyoiv2czSVlKiLZK6J-7">
          <mxGeometry x="49.68749999999999" width="4.140625" height="31.99999999999999" as="geometry" />
        </mxCell>
        <mxCell id="BHVyoiv2czSVlKiLZK6J-28" value="" style="endArrow=none;html=1;rounded=0;" edge="1" parent="BHVyoiv2czSVlKiLZK6J-7">
          <mxGeometry width="50" height="50" relative="1" as="geometry">
            <mxPoint x="16.5625" y="47.99999999999999" as="sourcePoint" />
            <mxPoint x="49.68749999999999" y="31.99999999999999" as="targetPoint" />
          </mxGeometry>
        </mxCell>
        <mxCell id="BHVyoiv2czSVlKiLZK6J-29" value="" style="shape=cylinder3;whiteSpace=wrap;html=1;boundedLbl=1;backgroundOutline=1;size=3.3333333333333997;" vertex="1" parent="BHVyoiv2czSVlKiLZK6J-7">
          <mxGeometry x="31.0546875" y="7.999999999999997" width="4.140625" height="31.99999999999999" as="geometry" />
        </mxCell>
        <mxCell id="BHVyoiv2czSVlKiLZK6J-30" value="" style="shape=cylinder3;whiteSpace=wrap;html=1;boundedLbl=1;backgroundOutline=1;size=3.3333333333333997;" vertex="1" parent="BHVyoiv2czSVlKiLZK6J-7">
          <mxGeometry x="12.835937499999998" y="15.999999999999995" width="4.140625" height="31.99999999999999" as="geometry" />
        </mxCell>
        <mxCell id="BHVyoiv2czSVlKiLZK6J-31" value="" style="shape=parallelogram;perimeter=parallelogramPerimeter;whiteSpace=wrap;html=1;fixedSize=1;fillColor=#4299E1;size=20;" vertex="1" parent="1">
          <mxGeometry x="240" y="180" width="120" height="60" as="geometry" />
        </mxCell>
        <mxCell id="BHVyoiv2czSVlKiLZK6J-32" value="" style="shape=parallelogram;perimeter=parallelogramPerimeter;whiteSpace=wrap;html=1;fixedSize=1;fillColor=#4299E1;size=20;" vertex="1" parent="1">
          <mxGeometry x="240" y="340" width="120" height="60" as="geometry" />
        </mxCell>
        <mxCell id="BHVyoiv2czSVlKiLZK6J-33" value="" style="endArrow=classic;html=1;rounded=0;exitX=1;exitY=0.5;exitDx=0;exitDy=0;" edge="1" parent="1" source="BHVyoiv2czSVlKiLZK6J-31">
          <mxGeometry width="50" height="50" relative="1" as="geometry">
            <mxPoint x="380" y="235" as="sourcePoint" />
            <mxPoint x="440" y="210" as="targetPoint" />
          </mxGeometry>
        </mxCell>
        <mxCell id="BHVyoiv2czSVlKiLZK6J-34" value="" style="endArrow=classic;html=1;rounded=0;exitX=1;exitY=0.5;exitDx=0;exitDy=0;" edge="1" parent="1">
          <mxGeometry width="50" height="50" relative="1" as="geometry">
            <mxPoint x="350" y="369.84000000000015" as="sourcePoint" />
            <mxPoint x="440" y="369.84000000000015" as="targetPoint" />
          </mxGeometry>
        </mxCell>
        <mxCell id="BHVyoiv2czSVlKiLZK6J-35" value="" style="shape=parallelogram;perimeter=parallelogramPerimeter;whiteSpace=wrap;html=1;fixedSize=1;fillColor=#4299E1;size=20;" vertex="1" parent="1">
          <mxGeometry x="440" y="340" width="40" height="60" as="geometry" />
        </mxCell>
        <mxCell id="BHVyoiv2czSVlKiLZK6J-36" value="" style="shape=parallelogram;perimeter=parallelogramPerimeter;whiteSpace=wrap;html=1;fixedSize=1;fillColor=#4299E1;size=20;" vertex="1" parent="1">
          <mxGeometry x="460" y="340" width="40" height="60" as="geometry" />
        </mxCell>
        <mxCell id="BHVyoiv2czSVlKiLZK6J-37" value="" style="rounded=0;whiteSpace=wrap;html=1;fillColor=none;" vertex="1" parent="1">
          <mxGeometry x="500" y="340" width="90" height="60" as="geometry" />
        </mxCell>
        <mxCell id="BHVyoiv2czSVlKiLZK6J-38" value="" style="endArrow=classic;html=1;rounded=0;" edge="1" parent="1">
          <mxGeometry width="50" height="50" relative="1" as="geometry">
            <mxPoint x="544.71" y="340" as="sourcePoint" />
            <mxPoint x="544.71" y="240" as="targetPoint" />
          </mxGeometry>
        </mxCell>
        <mxCell id="BHVyoiv2czSVlKiLZK6J-39" value="" style="rounded=0;whiteSpace=wrap;html=1;fillColor=none;dashed=1;" vertex="1" parent="1">
          <mxGeometry x="500" y="180" width="90" height="60" as="geometry" />
        </mxCell>
        <mxCell id="BHVyoiv2czSVlKiLZK6J-40" value="" style="endArrow=classic;html=1;rounded=0;" edge="1" parent="1">
          <mxGeometry width="50" height="50" relative="1" as="geometry">
            <mxPoint x="590" y="209.71000000000004" as="sourcePoint" />
            <mxPoint x="650" y="209.71000000000004" as="targetPoint" />
          </mxGeometry>
        </mxCell>
        <mxCell id="BHVyoiv2czSVlKiLZK6J-41" value="" style="rounded=0;whiteSpace=wrap;html=1;fillColor=none;" vertex="1" parent="1">
          <mxGeometry x="650" y="180" width="40" height="60" as="geometry" />
        </mxCell>
        <mxCell id="BHVyoiv2czSVlKiLZK6J-42" value="" style="endArrow=classic;html=1;rounded=0;exitX=1;exitY=0.5;exitDx=0;exitDy=0;" edge="1" parent="1">
          <mxGeometry width="50" height="50" relative="1" as="geometry">
            <mxPoint x="690" y="209.71000000000004" as="sourcePoint" />
            <mxPoint x="780" y="209.71000000000004" as="targetPoint" />
          </mxGeometry>
        </mxCell>
        <mxCell id="BHVyoiv2czSVlKiLZK6J-43" value="" style="endArrow=classic;html=1;rounded=0;exitX=0.5;exitY=1;exitDx=0;exitDy=0;entryX=0.5;entryY=0;entryDx=0;entryDy=0;" edge="1" parent="1" target="BHVyoiv2czSVlKiLZK6J-44">
          <mxGeometry width="50" height="50" relative="1" as="geometry">
            <mxPoint x="670" y="240" as="sourcePoint" />
            <mxPoint x="700" y="340" as="targetPoint" />
          </mxGeometry>
        </mxCell>
        <mxCell id="BHVyoiv2czSVlKiLZK6J-44" value="" style="rounded=0;whiteSpace=wrap;html=1;fillColor=none;dashed=1;" vertex="1" parent="1">
          <mxGeometry x="650" y="340" width="40" height="60" as="geometry" />
        </mxCell>
        <mxCell id="BHVyoiv2czSVlKiLZK6J-45" value="" style="endArrow=classic;html=1;rounded=0;exitX=1;exitY=0.5;exitDx=0;exitDy=0;" edge="1" parent="1">
          <mxGeometry width="50" height="50" relative="1" as="geometry">
            <mxPoint x="690" y="369.71000000000004" as="sourcePoint" />
            <mxPoint x="780" y="369.71000000000004" as="targetPoint" />
          </mxGeometry>
        </mxCell>
        <mxCell id="BHVyoiv2czSVlKiLZK6J-46" value="" style="shape=parallelogram;perimeter=parallelogramPerimeter;whiteSpace=wrap;html=1;fixedSize=1;fillColor=#4299E1;size=20;" vertex="1" parent="1">
          <mxGeometry x="780" y="340" width="40" height="60" as="geometry" />
        </mxCell>
        <mxCell id="BHVyoiv2czSVlKiLZK6J-47" value="" style="shape=parallelogram;perimeter=parallelogramPerimeter;whiteSpace=wrap;html=1;fixedSize=1;fillColor=#4299E1;size=20;" vertex="1" parent="1">
          <mxGeometry x="800" y="340" width="40" height="60" as="geometry" />
        </mxCell>
        <mxCell id="BHVyoiv2czSVlKiLZK6J-48" value="" style="shape=parallelogram;perimeter=parallelogramPerimeter;whiteSpace=wrap;html=1;fixedSize=1;fillColor=#4299E1;size=20;" vertex="1" parent="1">
          <mxGeometry x="820" y="340" width="40" height="60" as="geometry" />
        </mxCell>
        <mxCell id="BHVyoiv2czSVlKiLZK6J-49" value="" style="shape=parallelogram;perimeter=parallelogramPerimeter;whiteSpace=wrap;html=1;fixedSize=1;fillColor=default;size=20;" vertex="1" parent="1">
          <mxGeometry x="840" y="340" width="40" height="60" as="geometry" />
        </mxCell>
        <mxCell id="BHVyoiv2czSVlKiLZK6J-50" value="" style="shape=parallelogram;perimeter=parallelogramPerimeter;whiteSpace=wrap;html=1;fixedSize=1;fillColor=default;size=20;" vertex="1" parent="1">
          <mxGeometry x="860" y="340" width="40" height="60" as="geometry" />
        </mxCell>
        <mxCell id="BHVyoiv2czSVlKiLZK6J-51" value="" style="shape=parallelogram;perimeter=parallelogramPerimeter;whiteSpace=wrap;html=1;fixedSize=1;fillColor=default;size=20;" vertex="1" parent="1">
          <mxGeometry x="880" y="340" width="40" height="60" as="geometry" />
        </mxCell>
        <mxCell id="BHVyoiv2czSVlKiLZK6J-52" value="" style="rounded=0;whiteSpace=wrap;html=1;fillColor=none;dashed=1;" vertex="1" parent="1">
          <mxGeometry x="860" y="180" width="90" height="60" as="geometry" />
        </mxCell>
        <mxCell id="BHVyoiv2czSVlKiLZK6J-53" value="" style="endArrow=classic;html=1;rounded=0;" edge="1" parent="1">
          <mxGeometry width="50" height="50" relative="1" as="geometry">
            <mxPoint x="950" y="209.71000000000004" as="sourcePoint" />
            <mxPoint x="1010" y="209.71000000000004" as="targetPoint" />
          </mxGeometry>
        </mxCell>
        <mxCell id="BHVyoiv2czSVlKiLZK6J-54" value="" style="rounded=0;whiteSpace=wrap;html=1;fillColor=none;" vertex="1" parent="1">
          <mxGeometry x="1010" y="180" width="40" height="60" as="geometry" />
        </mxCell>
        <mxCell id="BHVyoiv2czSVlKiLZK6J-55" value="" style="endArrow=classic;html=1;rounded=0;exitX=1;exitY=0.5;exitDx=0;exitDy=0;" edge="1" parent="1">
          <mxGeometry width="50" height="50" relative="1" as="geometry">
            <mxPoint x="1050" y="209.71000000000004" as="sourcePoint" />
            <mxPoint x="1140" y="209.71000000000004" as="targetPoint" />
          </mxGeometry>
        </mxCell>
        <mxCell id="BHVyoiv2czSVlKiLZK6J-56" value="" style="shape=parallelogram;perimeter=parallelogramPerimeter;whiteSpace=wrap;html=1;fixedSize=1;fillColor=#4299E1;size=20;" vertex="1" parent="1">
          <mxGeometry x="1140" y="340" width="40" height="60" as="geometry" />
        </mxCell>
        <mxCell id="BHVyoiv2czSVlKiLZK6J-57" value="" style="shape=parallelogram;perimeter=parallelogramPerimeter;whiteSpace=wrap;html=1;fixedSize=1;fillColor=default;size=20;" vertex="1" parent="1">
          <mxGeometry x="1160" y="340" width="40" height="60" as="geometry" />
        </mxCell>
        <mxCell id="BHVyoiv2czSVlKiLZK6J-58" value="" style="rounded=0;whiteSpace=wrap;html=1;fillColor=none;dashed=1;" vertex="1" parent="1">
          <mxGeometry x="1180" y="180" width="90" height="60" as="geometry" />
        </mxCell>
        <mxCell id="BHVyoiv2czSVlKiLZK6J-59" value="" style="endArrow=classic;html=1;rounded=0;" edge="1" parent="1">
          <mxGeometry width="50" height="50" relative="1" as="geometry">
            <mxPoint x="1270" y="209.71000000000004" as="sourcePoint" />
            <mxPoint x="1330" y="209.71000000000004" as="targetPoint" />
          </mxGeometry>
        </mxCell>
        <mxCell id="BHVyoiv2czSVlKiLZK6J-60" value="" style="rounded=0;whiteSpace=wrap;html=1;fillColor=none;" vertex="1" parent="1">
          <mxGeometry x="1330" y="180" width="40" height="60" as="geometry" />
        </mxCell>
        <mxCell id="BHVyoiv2czSVlKiLZK6J-61" value="" style="endArrow=classic;html=1;rounded=0;exitX=1;exitY=0.5;exitDx=0;exitDy=0;" edge="1" parent="1">
          <mxGeometry width="50" height="50" relative="1" as="geometry">
            <mxPoint x="1370" y="209.57999999999993" as="sourcePoint" />
            <mxPoint x="1460" y="209.57999999999993" as="targetPoint" />
          </mxGeometry>
        </mxCell>
        <mxCell id="BHVyoiv2czSVlKiLZK6J-62" value="" style="endArrow=classic;startArrow=classic;html=1;rounded=0;" edge="1" parent="1">
          <mxGeometry width="50" height="50" relative="1" as="geometry">
            <mxPoint x="440" y="420" as="sourcePoint" />
            <mxPoint x="500" y="420" as="targetPoint" />
          </mxGeometry>
        </mxCell>
        <mxCell id="BHVyoiv2czSVlKiLZK6J-63" value="" style="endArrow=classic;startArrow=classic;html=1;rounded=0;" edge="1" parent="1">
          <mxGeometry width="50" height="50" relative="1" as="geometry">
            <mxPoint x="440" y="320" as="sourcePoint" />
            <mxPoint x="500" y="320" as="targetPoint" />
          </mxGeometry>
        </mxCell>
        <mxCell id="BHVyoiv2czSVlKiLZK6J-64" value="" style="endArrow=classic;startArrow=classic;html=1;rounded=0;" edge="1" parent="1">
          <mxGeometry width="50" height="50" relative="1" as="geometry">
            <mxPoint x="780" y="320" as="sourcePoint" />
            <mxPoint x="920" y="320" as="targetPoint" />
          </mxGeometry>
        </mxCell>
        <mxCell id="BHVyoiv2czSVlKiLZK6J-65" value="" style="endArrow=classic;startArrow=classic;html=1;rounded=0;" edge="1" parent="1">
          <mxGeometry width="50" height="50" relative="1" as="geometry">
            <mxPoint x="1140" y="320" as="sourcePoint" />
            <mxPoint x="1200" y="320" as="targetPoint" />
          </mxGeometry>
        </mxCell>
        <mxCell id="BHVyoiv2czSVlKiLZK6J-66" value="" style="rounded=0;whiteSpace=wrap;html=1;fillColor=none;" vertex="1" parent="1">
          <mxGeometry x="650" y="340" width="40" height="60" as="geometry" />
        </mxCell>
        <mxCell id="BHVyoiv2czSVlKiLZK6J-67" value="" style="rounded=0;whiteSpace=wrap;html=1;fillColor=none;" vertex="1" parent="1">
          <mxGeometry x="500" y="180" width="90" height="60" as="geometry" />
        </mxCell>
        <mxCell id="BHVyoiv2czSVlKiLZK6J-68" value="" style="rounded=0;whiteSpace=wrap;html=1;fillColor=none;" vertex="1" parent="1">
          <mxGeometry x="860" y="180" width="90" height="60" as="geometry" />
        </mxCell>
        <mxCell id="BHVyoiv2czSVlKiLZK6J-69" value="" style="rounded=0;whiteSpace=wrap;html=1;fillColor=none;" vertex="1" parent="1">
          <mxGeometry x="1180" y="180" width="90" height="60" as="geometry" />
        </mxCell>
        <mxCell id="BHVyoiv2czSVlKiLZK6J-70" value="" style="endArrow=none;dashed=1;html=1;rounded=0;strokeWidth=1;" edge="1" parent="1">
          <mxGeometry width="50" height="50" relative="1" as="geometry">
            <mxPoint x="1140" y="440" as="sourcePoint" />
            <mxPoint x="1140" y="160" as="targetPoint" />
          </mxGeometry>
        </mxCell>
      </root>
    </mxGraphModel>
  </diagram>
</mxfile>
